<svg width="64" height="64" viewBox="0 0 64 64" fill="none"
	xmlns="http://www.w3.org/2000/svg">
	<path d="M32 2C19.82 20.2453 12 31.6384 12 42.7275C12 48.1041 14.1071 53.2605 17.8579 57.0623C21.6086 60.8641 26.6957 63 32 63C37.3043 63 42.3914 60.8641 46.1421 57.0623C49.8929 53.2605 52 48.1041 52 42.7275C52 31.6384 44.18 20.2453 32 2Z" fill="url(#paint0_linear_102_2)" stroke="#2885C7" stroke-width="0.5" stroke-miterlimit="10"/>
	<path d="M21.4889 28.3381C22.6736 27.3895 24.1934 26.9149 25.733 27.0126C27.2726 26.9149 28.7923 27.3895 29.9771 28.3381C30.4816 28.8175 30.8744 29.3942 31.1298 30.0299C31.3851 30.6657 31.4972 31.3461 31.4585 32.0265V34.4085C31.4953 35.0829 31.3822 35.7571 31.1268 36.3864C30.8714 37.0156 30.4795 37.5856 29.9771 38.0585C28.7845 38.9916 27.2687 39.4581 25.733 39.3648C24.196 39.4679 22.6766 39.0002 21.4889 38.0585C20.9865 37.5856 20.5946 37.0156 20.3392 36.3864C20.0838 35.7571 19.9707 35.0829 20.0075 34.4085V32.0265C19.9688 31.3461 20.0808 30.6657 20.3362 30.0299C20.5915 29.3942 20.9844 28.8175 21.4889 28.3381ZM43.5102 27.8962C43.5537 28.0268 43.5618 28.1659 43.5338 28.3004C43.5058 28.4348 43.4425 28.5602 43.35 28.6647L27.0142 50.4299C26.7921 50.7728 26.4907 51.062 26.1334 51.2752C25.6693 51.4226 25.1796 51.4813 24.692 51.4481H23.3507C22.9503 51.4481 22.69 51.3328 22.5899 51.1023C22.4899 50.8718 22.5899 50.622 22.7701 50.2955L39.186 28.4918C39.3725 28.1572 39.6581 27.8831 40.0068 27.7041C40.4416 27.5804 40.8951 27.5284 41.3481 27.5505H42.8695C43.2299 27.5505 43.4568 27.6913 43.5502 27.9731L43.5102 27.8962ZM25.6929 30.1439C24.1114 30.1439 23.3106 30.8354 23.3106 32.1994V34.1204C23.3106 35.4843 24.1114 36.1759 25.6929 36.1759C27.2745 36.1759 28.0752 35.4843 28.0752 34.1204V32.1994C28.1153 30.8354 27.3145 30.1439 25.733 30.1439H25.6929ZM36.0229 40.9593C37.2077 40.0107 38.7274 39.536 40.267 39.6337C41.8066 39.536 43.3264 40.0107 44.5111 40.9593C45.0156 41.4387 45.4085 42.0153 45.6638 42.6511C45.9192 43.2868 46.0312 43.9673 45.9925 44.6476V47.0297C46.0293 47.7041 45.9162 48.3783 45.6608 49.0075C45.4054 49.6368 45.0135 50.2068 44.5111 50.6797C43.3234 51.6214 41.804 52.089 40.267 51.986C38.7313 52.0793 37.2155 51.6127 36.0229 50.6797C35.5205 50.2068 35.1286 49.6368 34.8732 49.0075C34.6178 48.3783 34.5047 47.7041 34.5415 47.0297V44.6476C34.508 43.9645 34.6263 43.2823 34.8886 42.6464C35.151 42.0104 35.5513 41.4353 36.063 40.9593H36.0229ZM40.267 42.765C38.6855 42.765 37.8847 43.4374 37.8847 44.8205V46.7416C37.8847 48.1439 38.6855 48.8355 40.267 48.8355C41.8485 48.8355 42.6493 48.1439 42.6493 46.7416V44.8205C42.6894 43.4374 41.8886 42.765 40.3071 42.765H40.267Z" fill="white"/>
	<defs>
		<linearGradient id="paint0_linear_102_2" x1="15.22" y1="11.8322" x2="43.0985" y2="59.4905" gradientUnits="userSpaceOnUse">
			<stop stop-color="#3392D6"/>
			<stop offset="0.45" stop-color="#3392D6"/>
			<stop offset="1" stop-color="#2477B2"/>
		</linearGradient>
	</defs>
</svg>
