<svg width="42" height="63" viewBox="0 0 42 63" fill="none"
	xmlns="http://www.w3.org/2000/svg">
	<path d="M21 1C8.82 19.2453 1 30.6384 1 41.7275C1 47.1041 3.10714 52.2605 6.85786 56.0623C10.6086 59.8642 15.6957 62 21 62C26.3043 62 31.3914 59.8642 35.1421 56.0623C38.8929 52.2605 41 47.1041 41 41.7275C41 30.6384 33.18 19.2453 21 1Z" fill="url(#paint0_linear_0_1)" stroke="#2885C7" stroke-width="0.5" stroke-miterlimit="10"/>
	<path d="M10.4889 27.3381C11.6736 26.3895 13.1934 25.9149 14.733 26.0126C16.2726 25.9149 17.7923 26.3895 18.9771 27.3381C19.4816 27.8175 19.8744 28.3942 20.1298 29.0299C20.3851 29.6657 20.4972 30.3461 20.4585 31.0265V33.4085C20.4953 34.0829 20.3822 34.7571 20.1268 35.3864C19.8714 36.0156 19.4795 36.5856 18.9771 37.0585C17.7845 37.9916 16.2687 38.4581 14.733 38.3648C13.196 38.4679 11.6766 38.0002 10.4889 37.0585C9.98648 36.5856 9.59458 36.0156 9.33917 35.3864C9.08377 34.7571 8.9707 34.0829 9.00745 33.4085V31.0265C8.9688 30.3461 9.08084 29.6657 9.33619 29.0299C9.59154 28.3942 9.9844 27.8175 10.4889 27.3381ZM32.5102 26.8962C32.5537 27.0268 32.5618 27.1659 32.5338 27.3004C32.5058 27.4348 32.4425 27.5602 32.35 27.6647L16.0142 49.4299C15.7921 49.7728 15.4907 50.062 15.1334 50.2752C14.6693 50.4226 14.1796 50.4813 13.692 50.4481H12.3507C11.9503 50.4481 11.69 50.3328 11.5899 50.1023C11.4899 49.8718 11.5899 49.622 11.7701 49.2955L28.186 27.4918C28.3725 27.1572 28.6581 26.8831 29.0068 26.7041C29.4416 26.5804 29.8951 26.5284 30.3481 26.5505H31.8695C32.2299 26.5505 32.4568 26.6913 32.5502 26.9731L32.5102 26.8962ZM14.6929 29.1439C13.1114 29.1439 12.3106 29.8354 12.3106 31.1994V33.1204C12.3106 34.4843 13.1114 35.1759 14.6929 35.1759C16.2745 35.1759 17.0752 34.4843 17.0752 33.1204V31.1994C17.1153 29.8354 16.3145 29.1439 14.733 29.1439H14.6929ZM25.0229 39.9593C26.2077 39.0107 27.7274 38.536 29.267 38.6337C30.8066 38.536 32.3264 39.0107 33.5111 39.9593C34.0156 40.4387 34.4085 41.0153 34.6638 41.6511C34.9192 42.2868 35.0312 42.9673 34.9925 43.6476V46.0297C35.0293 46.7041 34.9162 47.3783 34.6608 48.0075C34.4054 48.6368 34.0135 49.2068 33.5111 49.6797C32.3234 50.6214 30.804 51.089 29.267 50.986C27.7313 51.0793 26.2155 50.6127 25.0229 49.6797C24.5205 49.2068 24.1286 48.6368 23.8732 48.0075C23.6178 47.3783 23.5047 46.7041 23.5415 46.0297V43.6476C23.508 42.9645 23.6263 42.2823 23.8886 41.6464C24.151 41.0104 24.5513 40.4353 25.063 39.9593H25.0229ZM29.267 41.765C27.6855 41.765 26.8847 42.4374 26.8847 43.8205V45.7416C26.8847 47.1439 27.6855 47.8355 29.267 47.8355C30.8485 47.8355 31.6493 47.1439 31.6493 45.7416V43.8205C31.6894 42.4374 30.8886 41.765 29.3071 41.765H29.267Z" fill="white"/>
	<defs>
		<linearGradient id="paint0_linear_0_1" x1="4.22" y1="10.8322" x2="32.0985" y2="58.4905" gradientUnits="userSpaceOnUse">
			<stop stop-color="#3392D6"/>
			<stop offset="0.45" stop-color="#3392D6"/>
			<stop offset="1" stop-color="#2477B2"/>
		</linearGradient>
	</defs>
</svg>
